<?xml version="1.0" ?><svg id="Layer_1" style="enable-background:new 0 0 32 32;" version="1.1" viewBox="0 0 32 32" xml:space="preserve" xmlns="http://www.w3.org/2000/svg" xmlns:xlink="http://www.w3.org/1999/xlink"><style type="text/css">
	.st0{fill:none;stroke:#000000;stroke-width:1.5;stroke-linecap:round;stroke-linejoin:round;stroke-miterlimit:10;}
</style><g><line class="st0" x1="16" x2="16" y1="1" y2="3.1"/><g><path class="st0" d="M23.1,12.1c-0.4-3.2-3-5.7-6.2-6.1c-4.3-0.5-8,2.9-8,7.1c0,1.7,0.6,3.2,1.5,4.4c1.8,2.2,2.6,5,2.7,7.9h5.8    c0-2.9,1.1-5.7,2.9-8.1C22.8,15.9,23.3,14.1,23.1,12.1z"/><path class="st0" d="M20.5,26.8c0,0.8-0.6,1.4-1.4,1.4h-6.3c-0.8,0-1.4-0.6-1.4-1.4s0.6-1.4,1.4-1.4h6.3    C19.9,25.4,20.5,26,20.5,26.8z"/><path class="st0" d="M18.4,28.6c0,1.3-1.1,2.4-2.4,2.4c-1.4,0-2.4-1.1-2.4-2.4c0-0.1,0-0.3,0-0.4h4.8    C18.4,28.3,18.4,28.4,18.4,28.6z"/><line class="st0" x1="24.5" x2="23" y1="4.5" y2="6"/><line class="st0" x1="28" x2="25.9" y1="13" y2="13"/><line class="st0" x1="6.1" x2="4" y1="13" y2="13"/><line class="st0" x1="9" x2="7.5" y1="6" y2="4.5"/></g></g></svg>