<svg width="28" height="28" viewBox="0 0 28 28" fill="none" xmlns="http://www.w3.org/2000/svg">
<path d="M23.3334 11.6663C23.3334 17.4915 16.8712 23.5582 14.7012 25.4318C14.4991 25.5839 14.253 25.666 14.0001 25.666C13.7471 25.666 13.5011 25.5839 13.2989 25.4318C11.1289 23.5582 4.66675 17.4915 4.66675 11.6663C4.66675 9.19099 5.65008 6.81702 7.40042 5.06668C9.15076 3.31634 11.5247 2.33301 14.0001 2.33301C16.4754 2.33301 18.8494 3.31634 20.5997 5.06668C22.3501 6.81702 23.3334 9.19099 23.3334 11.6663Z" stroke="black" stroke-width="2.33333" stroke-linecap="round" stroke-linejoin="round"/>
<path d="M14 15.167C15.933 15.167 17.5 13.6 17.5 11.667C17.5 9.734 15.933 8.16699 14 8.16699C12.067 8.16699 10.5 9.734 10.5 11.667C10.5 13.6 12.067 15.167 14 15.167Z" stroke="black" stroke-width="2.33333" stroke-linecap="round" stroke-linejoin="round"/>
</svg>
