<?xml version="1.0" encoding="iso-8859-1"?>
<!-- Generator: Adobe Illustrator 16.0.0, SVG Export Plug-In . SVG Version: 6.00 Build 0)  -->
<!DOCTYPE svg PUBLIC "-//W3C//DTD SVG 1.1//EN" "http://www.w3.org/Graphics/SVG/1.1/DTD/svg11.dtd">
<svg version="1.1" id="Capa_1" xmlns="http://www.w3.org/2000/svg" xmlns:xlink="http://www.w3.org/1999/xlink" x="0px" y="0px"
	 width="345.407px" height="345.408px" viewBox="0 0 345.407 345.408" style="enable-background:new 0 0 345.407 345.408;"
	 xml:space="preserve">
<g>
	<g id="_x32_36._Key">
		<g>
			<path d="M282.608,109.906C282.608,49.207,233.394,0,172.705,0C112.007,0,62.799,49.207,62.799,109.906
				c0,52.607,36.982,96.521,86.354,107.312v96.787c0,17.353,14.062,31.402,31.402,31.402h31.402c8.664,0,15.701-7.029,15.701-15.701
				v-31.402c0-8.668-7.037-15.696-15.701-15.696h-15.701v-65.39C245.628,206.426,282.608,162.513,282.608,109.906z M172.705,172.708
				c-34.69,0-62.803-28.12-62.803-62.802c0-34.69,28.112-62.803,62.803-62.803c34.685,0,62.805,28.112,62.805,62.803
				C235.51,144.588,207.39,172.708,172.705,172.708z"/>
		</g>
	</g>
</g>
<g>
</g>
<g>
</g>
<g>
</g>
<g>
</g>
<g>
</g>
<g>
</g>
<g>
</g>
<g>
</g>
<g>
</g>
<g>
</g>
<g>
</g>
<g>
</g>
<g>
</g>
<g>
</g>
<g>
</g>
</svg>
